<?xml version="1.0" standalone="no"?>
<!DOCTYPE svg PUBLIC "-//W3C//DTD SVG 20010904//EN"
 "http://www.w3.org/TR/2001/REC-SVG-20010904/DTD/svg10.dtd">
<svg version="1.0" xmlns="http://www.w3.org/2000/svg"
 width="450.000000pt" height="442.000000pt" viewBox="0 0 450.000000 442.000000"
 preserveAspectRatio="xMidYMid meet">
<metadata>
Created by potrace 1.10, written by Peter Selinger 2001-2011
</metadata>
<g transform="translate(0.000000,442.000000) scale(0.100000,-0.100000)"
fill="#4682b4" stroke="none">
<path d="M3408 4413 c7 -3 16 -2 19 1 4 3 -2 6 -13 5 -11 0 -14 -3 -6 -6z"/>
<path d="M4052 4395 c0 -16 2 -22 5 -12 2 9 2 23 0 30 -3 6 -5 -1 -5 -18z"/>
<path d="M3228 4363 c7 -3 16 -2 19 1 4 3 -2 6 -13 5 -11 0 -14 -3 -6 -6z"/>
<path d="M4090 4320 c0 -5 5 -10 11 -10 5 0 7 5 4 10 -3 6 -8 10 -11 10 -2 0
-4 -4 -4 -10z"/>
<path d="M4160 4305 c7 -9 15 -13 17 -11 7 7 -7 26 -19 26 -6 0 -6 -6 2 -15z"/>
<path d="M2286 4291 c-4 -5 0 -12 6 -14 13 -6 -33 -11 -64 -9 -10 1 -18 -2
-18 -8 0 -5 41 -8 95 -7 70 1 96 6 100 16 4 10 2 11 -7 4 -18 -15 -78 -4 -78
13 0 16 -26 19 -34 5z"/>
<path d="M4110 4290 c0 -5 5 -10 11 -10 5 0 7 5 4 10 -3 6 -8 10 -11 10 -2 0
-4 -4 -4 -10z"/>
<path d="M2910 4261 c0 -6 4 -13 10 -16 6 -3 7 1 4 9 -7 18 -14 21 -14 7z"/>
<path d="M2085 4251 l-50 -6 0 -88 -1 -89 29 6 c16 3 47 6 68 6 l39 0 0 90 c0
80 -2 90 -17 88 -10 0 -40 -4 -68 -7z m45 -23 c0 -10 2 -10 8 -1 4 6 7 -20 7
-58 l0 -69 -42 0 -43 0 0 64 c0 63 1 65 28 69 15 2 30 5 35 6 4 0 7 -5 7 -11z"/>
<path d="M2597 4245 c3 -8 9 -12 14 -9 12 7 11 11 -5 17 -10 4 -13 1 -9 -8z"/>
<path d="M3197 4240 c-3 -11 -1 -20 4 -20 5 0 9 9 9 20 0 11 -2 20 -4 20 -2 0
-6 -9 -9 -20z"/>
<path d="M4130 4234 c0 -15 3 -23 8 -18 4 5 10 11 13 14 4 3 1 11 -7 18 -12
11 -14 8 -14 -14z"/>
<path d="M2420 4160 c0 -50 4 -89 9 -86 6 4 70 -3 145 -17 7 -1 11 26 11 86 0
48 -2 87 -5 88 -3 0 -14 2 -25 3 -11 2 -46 6 -77 10 l-58 7 0 -91z m139 54 c7
-7 6 -112 -1 -108 -5 3 -8 1 -8 -5 0 -5 6 -12 13 -15 6 -3 -4 -3 -23 0 -19 3
-50 6 -67 7 l-33 2 0 69 0 68 58 -7 c31 -4 59 -9 61 -11z"/>
<path d="M1875 4218 c-22 -5 -77 -21 -122 -35 l-83 -25 0 -88 0 -88 53 18 c86
30 158 50 177 50 15 0 17 11 17 90 0 50 0 90 -1 89 0 -1 -19 -6 -41 -11z m17
-47 c2 -16 2 -45 0 -65 -4 -33 -8 -36 -55 -50 -28 -8 -54 -13 -59 -10 -4 3 -8
1 -8 -3 0 -5 -8 -9 -17 -10 -10 -1 -27 -3 -38 -5 -18 -3 -20 3 -22 58 -1 61
-1 62 28 68 36 7 28 5 96 26 74 24 70 25 75 -9z"/>
<path d="M2624 4223 c12 -12 58 -15 51 -3 -3 5 -18 10 -32 10 -15 0 -23 -3
-19 -7z"/>
<path d="M4201 4215 c0 -11 6 -31 14 -45 l15 -25 -4 27 c-3 15 -9 35 -15 45
-10 17 -10 17 -10 -2z"/>
<path d="M2700 4116 l0 -91 56 -13 c30 -7 86 -26 125 -42 l69 -28 0 92 0 91
-125 41 -125 41 0 -91z m103 44 c5 0 5 -5 1 -12 -5 -8 -2 -9 9 -5 9 3 38 -3
65 -14 l49 -21 -1 -59 c-2 -32 -4 -60 -7 -62 -2 -2 -45 9 -96 25 -95 31 -100
35 -103 93 -4 72 -4 74 38 64 20 -5 41 -9 45 -9z"/>
<path d="M4130 4183 c1 -10 7 -31 15 -48 l13 -30 1 33 c1 18 -6 40 -14 48 -13
14 -15 13 -15 -3z"/>
<path d="M3260 4150 c0 -5 5 -10 10 -10 6 0 10 5 10 10 0 6 -4 10 -10 10 -5 0
-10 -4 -10 -10z"/>
<path d="M2960 4136 c0 -12 24 -33 48 -40 14 -5 22 -3 22 4 0 6 -4 8 -10 5 -5
-3 -10 1 -10 10 0 11 -5 15 -14 12 -7 -3 -19 0 -25 6 -6 6 -11 8 -11 3z"/>
<path d="M1450 4063 c-191 -102 -306 -188 -455 -337 -340 -341 -519 -802 -502
-1296 4 -139 33 -331 49 -338 5 -2 6 -7 3 -12 -11 -17 80 -260 141 -381 156
-304 431 -585 719 -735 50 -26 113 -62 142 -80 28 -19 58 -34 65 -34 8 0 19
-5 26 -12 9 -9 12 -9 12 0 0 12 -59 48 -74 44 -25 -7 -36 23 -36 102 l0 82
-67 33 c-369 181 -673 534 -802 931 -56 174 -66 245 -66 470 0 226 14 316 76
497 128 372 423 709 787 898 l72 38 0 89 c0 48 -1 88 -2 88 -2 -1 -41 -21 -88
-47z m58 -5 c7 -7 12 -35 12 -63 0 -46 -3 -53 -26 -64 -14 -6 -30 -9 -35 -6
-5 4 -9 -2 -9 -11 0 -10 -3 -15 -6 -11 -3 3 -24 -7 -47 -23 -30 -20 -44 -25
-49 -17 -5 8 -8 7 -8 -4 0 -9 -12 -22 -27 -30 -16 -8 -33 -18 -39 -24 -6 -5
-27 -21 -47 -35 -20 -14 -37 -28 -37 -32 0 -5 -9 -8 -20 -8 -11 0 -19 -3 -18
-7 2 -5 -1 -8 -5 -8 -5 0 -13 -8 -18 -18 -6 -9 -14 -15 -20 -12 -5 4 -6 -2 -2
-12 3 -10 3 -15 -1 -11 -9 8 -44 -24 -38 -35 2 -5 -3 -7 -11 -5 -9 2 -15 0
-14 -3 1 -4 -21 -31 -49 -60 -28 -30 -59 -67 -69 -82 -10 -15 -24 -26 -30 -23
-8 3 -11 -2 -8 -13 5 -18 -34 -74 -46 -67 -4 3 -8 -5 -8 -16 -1 -12 -6 -24
-12 -27 -5 -4 -32 -50 -60 -104 -27 -54 -54 -104 -59 -110 -5 -7 -17 -38 -26
-69 -10 -32 -21 -58 -26 -58 -4 0 -5 -11 -2 -25 2 -14 0 -25 -6 -25 -5 0 -12
-17 -16 -37 -3 -21 -13 -76 -22 -123 -9 -47 -18 -101 -20 -120 -7 -76 -4 -298
5 -350 5 -30 7 -67 4 -83 -3 -17 -1 -27 7 -27 6 0 10 -8 7 -17 -2 -10 3 -31
11 -47 12 -24 12 -30 0 -37 -7 -5 -8 -9 -2 -9 15 0 47 -86 38 -101 -4 -7 -3
-9 3 -6 13 8 27 -39 17 -55 -4 -7 -3 -8 4 -4 7 4 12 1 12 -6 0 -7 11 -34 25
-61 14 -26 23 -47 19 -47 -4 0 -1 -7 6 -15 6 -8 8 -20 4 -27 -4 -7 -4 -10 1
-6 12 11 58 -60 49 -75 -4 -6 -4 -9 1 -5 8 8 65 -64 65 -82 0 -5 4 -10 9 -10
10 0 42 -46 45 -64 3 -17 25 -53 26 -40 0 5 -3 14 -7 20 -5 5 0 1 9 -9 10 -11
15 -24 11 -30 -3 -5 -1 -7 4 -4 6 4 16 0 23 -8 7 -8 9 -15 4 -15 -5 0 6 -9 24
-20 18 -11 30 -25 27 -30 -3 -6 -1 -10 5 -10 15 0 100 -82 94 -91 -2 -5 6 -13
18 -19 22 -11 22 -10 4 4 -11 9 -16 16 -11 16 15 0 45 -32 46 -49 0 -11 2 -12
6 -3 4 10 8 10 19 1 8 -6 11 -15 8 -20 -3 -5 3 -6 12 -2 10 4 15 2 11 -4 -3
-5 9 -16 28 -23 24 -9 31 -16 23 -22 -9 -5 -6 -8 9 -8 13 0 51 -17 86 -39 35
-21 73 -42 85 -45 13 -4 19 -12 16 -18 -5 -7 -2 -9 8 -6 11 5 15 -2 16 -26 1
-49 -8 -97 -19 -91 -5 4 -6 12 -2 18 4 7 0 6 -10 -2 -16 -12 -22 -8 -18 12 1
5 -3 6 -9 2 -10 -6 -90 33 -90 45 0 4 -6 7 -12 7 -21 0 -165 100 -246 171 -82
71 -119 111 -114 125 1 5 -2 6 -8 2 -10 -6 -48 33 -108 113 -20 26 -38 49 -41
52 -13 11 -87 127 -99 155 -7 16 -16 32 -21 35 -14 10 -82 160 -88 195 -3 19
-9 32 -14 29 -5 -3 -9 -2 -10 3 -2 21 -8 45 -27 99 -29 85 -44 153 -36 166 4
6 3 8 -4 5 -12 -8 -23 59 -28 178 -2 44 -5 101 -8 127 -2 26 0 46 4 43 4 -3 4
13 -1 35 -5 24 -6 48 -1 58 5 9 10 40 10 67 2 68 13 148 22 160 4 6 10 30 14
55 8 55 44 174 62 209 8 14 14 31 14 37 0 10 51 123 79 174 46 86 64 117 75
125 7 6 16 21 21 34 6 19 9 21 17 10 8 -11 8 -9 4 5 -4 12 4 30 26 55 18 20
44 51 58 69 51 66 79 94 89 88 7 -4 8 -1 5 8 -3 9 -2 16 3 16 6 0 39 29 74 64
71 71 236 189 328 236 33 17 63 35 66 40 8 13 19 12 33 -2z"/>
<path d="M3640 4100 c0 -5 5 -10 10 -10 6 0 10 5 10 10 0 6 -4 10 -10 10 -5 0
-10 -4 -10 -10z"/>
<path d="M3037 3990 l1 -91 49 -25 c202 -107 402 -285 546 -486 355 -497 379
-1170 60 -1688 -139 -224 -315 -398 -556 -548 l-99 -61 -1 -86 c-1 -47 0 -85
3 -85 14 0 191 106 263 157 129 91 340 308 426 437 209 314 303 619 304 981 1
388 -109 723 -342 1045 -108 150 -296 326 -462 433 -71 46 -180 107 -191 107
-2 0 -2 -41 -1 -90z m185 -34 c10 -9 18 -13 18 -10 0 7 90 -64 116 -93 12 -13
25 -23 30 -23 17 0 116 -99 109 -109 -3 -6 0 -9 8 -5 14 5 108 -92 110 -113 0
-4 11 -16 24 -26 13 -10 23 -22 23 -27 0 -5 11 -21 25 -36 13 -14 22 -30 19
-35 -3 -5 2 -9 11 -9 11 0 15 -5 12 -14 -3 -8 1 -17 9 -20 11 -4 13 -13 9 -28
-4 -16 -3 -19 3 -10 7 10 13 7 27 -15 10 -15 18 -33 18 -40 0 -7 4 -13 9 -13
5 0 11 -8 15 -17 7 -22 61 -142 73 -164 8 -15 33 -95 34 -111 1 -3 4 -10 9
-14 4 -4 7 -18 7 -30 0 -13 4 -25 9 -28 11 -7 21 -54 27 -126 3 -30 9 -68 14
-85 21 -72 30 -239 19 -365 -11 -132 -20 -214 -26 -223 -2 -4 -6 -20 -9 -35
-3 -15 -10 -43 -16 -62 -12 -37 -14 -43 -16 -73 -1 -11 -7 -15 -14 -11 -6 4
-8 3 -5 -3 8 -13 -10 -76 -41 -143 -14 -30 -26 -58 -26 -61 -2 -11 -41 -84
-49 -90 -5 -3 -7 -10 -6 -14 2 -5 -7 -22 -19 -39 -40 -54 -86 -131 -84 -139 1
-4 -5 -7 -13 -7 -8 0 -18 -12 -21 -26 -4 -15 -12 -23 -20 -20 -8 3 -11 0 -7
-10 7 -18 -35 -66 -50 -57 -6 3 -7 1 -4 -4 9 -15 -40 -66 -55 -57 -7 4 -8 3
-4 -4 7 -12 -2 -23 -95 -107 -82 -75 -99 -86 -111 -79 -6 4 -9 3 -5 -2 7 -12
-102 -94 -124 -94 -9 0 -19 -7 -23 -15 -3 -9 -12 -12 -23 -8 -10 3 -15 2 -11
-2 11 -11 -29 -38 -44 -29 -6 4 -8 3 -5 -3 4 -6 1 -13 -7 -16 -10 -4 -13 10
-15 57 -2 51 2 65 18 80 11 10 25 15 30 11 6 -3 11 -1 11 4 0 6 7 11 15 11 7
0 19 8 24 18 6 9 11 14 11 9 0 -4 11 0 25 9 13 8 30 12 36 8 8 -4 9 -3 5 5
-10 15 106 111 135 111 6 0 8 4 5 8 -3 5 12 23 33 40 21 17 56 49 79 71 22 22
43 36 47 33 4 -4 5 -2 4 3 -2 6 7 26 19 45 13 22 22 29 22 18 0 -9 4 -20 10
-23 6 -4 7 1 3 10 -3 10 0 21 8 26 12 7 12 9 0 9 -9 0 1 14 22 34 20 18 37 40
37 49 0 8 6 20 14 26 8 6 19 25 26 41 7 16 16 27 21 24 5 -3 9 4 9 15 0 12 5
21 10 21 6 0 10 8 10 19 0 10 7 24 15 31 8 6 14 15 13 18 -1 4 2 15 7 25 6 15
10 16 17 5 6 -9 7 -6 3 9 -3 12 -1 24 5 28 5 3 10 16 10 28 0 18 2 20 11 7 9
-12 10 -10 6 8 -6 27 10 82 24 82 5 0 9 13 9 29 0 16 7 45 15 65 24 56 57 288
59 409 1 59 -1 107 -4 107 -3 0 -6 19 -7 43 -4 77 -10 111 -36 222 -15 61 -36
129 -47 153 -11 23 -23 56 -27 72 -3 17 -9 30 -13 30 -4 0 -14 20 -21 44 -7
25 -17 43 -21 40 -4 -3 -5 2 -2 10 4 9 1 16 -6 16 -7 0 -10 7 -6 17 4 10 4 14
0 10 -10 -9 -49 54 -45 73 2 8 -1 12 -5 7 -4 -4 -20 12 -36 35 -15 24 -34 52
-40 62 -7 11 -21 28 -30 38 -10 10 -18 23 -18 28 0 6 -7 10 -15 10 -14 0 -20
12 -16 33 1 5 -3 6 -8 3 -5 -3 -16 5 -25 19 -22 33 -106 119 -106 108 0 -4 -6
-1 -13 8 -7 8 -30 27 -52 42 -22 15 -35 27 -30 27 6 1 -2 8 -17 16 -16 8 -28
20 -28 26 0 6 -3 8 -7 5 -3 -4 -21 4 -39 18 -18 14 -37 25 -41 25 -5 0 -19 9
-31 20 -12 12 -22 18 -22 15 0 -3 -5 -3 -12 1 -8 5 -6 10 8 16 15 7 14 7 -6 4
-39 -7 -59 14 -55 57 3 25 0 35 -7 31 -7 -4 -8 1 -2 17 4 13 7 29 7 36 0 12
124 -51 159 -81z"/>
<path d="M4150 4061 c0 -11 4 -22 9 -25 5 -3 8 5 7 19 -1 29 -16 34 -16 6z"/>
<path d="M3580 4030 c0 -5 5 -10 11 -10 5 0 7 5 4 10 -3 6 -8 10 -11 10 -2 0
-4 -4 -4 -10z"/>
<path d="M3327 4019 c7 -7 15 -10 18 -7 3 3 -2 9 -12 12 -14 6 -15 5 -6 -5z"/>
<path d="M3482 3965 c6 -14 13 -24 14 -22 6 6 -9 47 -17 47 -5 0 -3 -11 3 -25z"/>
<path d="M3738 3923 c7 -3 16 -2 19 1 4 3 -2 6 -13 5 -11 0 -14 -3 -6 -6z"/>
<path d="M3870 3890 c0 -19 3 -21 12 -12 9 9 9 15 0 24 -9 9 -12 7 -12 -12z"/>
<path d="M2137 3793 c-10 -3 -22 -15 -27 -29 -6 -16 -15 -22 -25 -18 -22 9
-55 -24 -55 -53 0 -33 42 -73 78 -73 16 0 35 -7 42 -15 19 -23 30 -18 30 13 1
15 7 38 15 52 23 40 19 96 -7 114 -12 9 -25 15 -28 15 -3 -1 -13 -3 -23 -6z
m44 -74 c-4 -54 -28 -80 -67 -73 -16 3 -32 11 -36 17 -4 7 -8 8 -8 2 -1 -5 -6
1 -11 15 -8 19 -6 27 6 37 10 6 23 9 31 6 14 -5 46 26 39 37 -2 3 9 5 23 4 26
-1 27 -3 23 -45z"/>
<path d="M2141 3724 c0 -11 3 -14 6 -6 3 7 2 16 -1 19 -3 4 -6 -2 -5 -13z"/>
<path d="M2071 3701 c-8 -5 -9 -11 -3 -15 5 -3 12 1 16 9 6 17 6 18 -13 6z"/>
<path d="M2362 3784 c-7 -13 -13 -14 -29 -6 -15 8 -25 7 -41 -4 -32 -22 -29
-69 6 -100 15 -13 36 -33 48 -44 26 -25 34 -25 34 -2 0 10 13 33 30 52 39 44
45 66 26 95 -19 29 -60 33 -74 9z m68 -33 c0 -5 -16 -29 -36 -53 -29 -34 -35
-38 -29 -18 7 24 6 24 -7 6 -19 -24 -42 -12 -34 18 5 20 4 20 -9 2 -13 -18
-14 -17 -20 7 -9 34 -1 45 29 40 14 -3 35 2 47 10 22 16 59 8 59 -12z"/>
<path d="M2397 3743 c3 -7 6 -13 8 -13 2 0 5 6 8 13 3 8 -1 14 -8 14 -7 0 -11
-6 -8 -14z"/>
<path d="M3797 3735 c-4 -8 -2 -17 3 -20 6 -4 10 3 10 14 0 25 -6 27 -13 6z"/>
<path d="M2500 3721 c-15 -30 -12 -56 10 -76 11 -10 20 -29 20 -42 0 -26 15
-31 23 -8 4 8 24 23 46 34 41 21 56 46 45 74 -8 22 -42 31 -59 17 -12 -10 -16
-9 -21 4 -9 22 -51 20 -64 -3z m75 -25 c8 4 22 3 30 0 13 -4 14 -10 5 -26 -6
-11 -17 -20 -25 -20 -8 0 -15 -5 -15 -11 0 -8 -4 -9 -13 0 -8 6 -17 8 -20 4
-4 -3 -7 0 -8 8 0 8 -2 24 -3 36 -1 12 1 20 6 17 4 -3 8 1 8 8 0 8 4 7 11 -4
5 -10 16 -15 24 -12z"/>
<path d="M1887 3693 c-9 -11 -17 -27 -17 -36 0 -12 -9 -17 -30 -17 -51 0 -67
-59 -27 -105 17 -20 34 -27 71 -30 27 -2 54 -9 60 -15 20 -20 32 -9 33 33 0
23 4 65 7 92 8 58 -5 82 -50 91 -22 4 -34 0 -47 -13z m52 -25 c11 -11 12 -10
6 1 -5 9 -4 12 3 8 11 -7 10 -116 -1 -134 -4 -6 -27 -11 -52 -11 -45 0 -73 18
-59 39 5 8 3 9 -6 4 -10 -6 -12 -4 -7 8 4 10 1 17 -6 17 -22 0 17 20 39 20 21
0 33 15 43 55 2 10 27 5 40 -7z"/>
<path d="M3675 3630 c3 -5 8 -10 11 -10 2 0 4 5 4 10 0 6 -5 10 -11 10 -5 0
-7 -4 -4 -10z"/>
<path d="M2665 3613 c-11 -11 -15 -24 -10 -42 3 -14 6 -36 6 -48 -1 -13 4 -23
9 -23 6 0 10 5 10 10 0 6 13 10 29 10 16 0 39 9 52 19 20 16 22 23 13 38 -6
10 -19 20 -29 22 -10 2 -25 9 -33 17 -18 18 -27 18 -47 -3z m72 -58 c-26 -27
-79 4 -55 32 8 10 16 10 38 -4 21 -12 25 -19 17 -28z"/>
<path d="M2706 3572 c-3 -5 1 -9 9 -9 8 0 12 4 9 9 -3 4 -7 8 -9 8 -2 0 -6 -4
-9 -8z"/>
<path d="M1421 3504 c-181 -49 -345 -216 -390 -399 -13 -53 -16 -203 -6 -251
12 -50 46 -138 68 -174 47 -78 212 -226 200 -181 -2 10 -18 25 -34 35 -16 10
-27 22 -23 27 3 5 2 8 -3 7 -14 -5 -83 56 -83 75 0 9 -4 17 -9 17 -13 0 -52
70 -46 81 4 5 2 9 -3 9 -12 0 -29 43 -46 115 -14 60 -4 218 19 280 23 62 49
112 68 127 12 9 22 23 22 30 1 7 7 12 14 10 7 -1 10 1 7 6 -6 9 63 79 76 78 4
-1 17 7 28 17 12 10 26 14 33 11 7 -4 8 -3 4 1 -10 11 62 47 76 38 6 -3 7 -1
3 5 -7 12 0 13 67 15 15 1 27 4 27 8 0 4 25 7 55 8 31 0 60 3 65 6 6 3 10 -1
10 -9 0 -9 5 -16 11 -16 5 0 7 5 4 10 -3 6 3 10 15 10 12 0 19 -4 16 -9 -3 -4
19 -11 50 -14 31 -3 68 -14 82 -23 15 -10 33 -19 41 -20 8 -2 24 -14 35 -27
12 -13 28 -22 36 -19 13 5 13 3 0 -13 -8 -10 -10 -16 -3 -12 15 9 54 -23 46
-36 -3 -6 -2 -7 4 -4 9 6 47 -36 51 -55 1 -5 10 -16 21 -27 71 -71 100 -345
45 -429 -9 -13 -11 -21 -5 -18 15 9 14 0 -3 -32 -7 -15 -19 -39 -26 -54 -12
-24 -69 -97 -95 -120 -66 -58 -87 -73 -127 -94 -26 -13 -73 -31 -105 -39 -81
-21 -88 -31 -73 -97 18 -82 21 -89 30 -83 5 3 16 -2 24 -11 9 -8 16 -13 16
-10 0 3 37 -7 83 -23 136 -47 166 -52 322 -54 146 -3 195 -12 195 -38 0 -6 4
-8 10 -4 16 10 0 33 -35 49 -25 12 -67 16 -177 16 -156 0 -211 10 -351 60 -72
27 -87 36 -87 53 -1 12 -7 40 -15 62 -8 21 -13 40 -11 42 1 2 26 7 54 13 180
34 348 196 406 390 22 73 22 228 1 300 -55 185 -211 338 -392 385 -72 19 -221
18 -292 -1z"/>
<path d="M2763 3478 c-14 -18 -26 -71 -14 -64 5 3 22 1 37 -4 22 -9 31 -8 43
5 15 15 14 17 -2 29 -10 8 -16 20 -15 27 4 18 -36 23 -49 7z m31 -36 c3 -5 -1
-9 -9 -9 -8 0 -12 4 -9 9 3 4 7 8 9 8 2 0 6 -4 9 -8z"/>
<path d="M2948 3455 c-26 -7 -62 -22 -80 -33 -18 -11 -52 -30 -75 -42 -59 -30
-146 -128 -183 -205 -17 -36 -38 -99 -47 -141 -58 -264 122 -552 389 -621 37
-9 68 -22 68 -27 0 -5 -7 -33 -17 -62 l-16 -52 -81 -31 c-162 -62 -228 -74
-383 -73 -126 1 -144 -1 -166 -18 -49 -39 -42 -127 13 -155 36 -18 231 -22
213 -4 -6 6 -46 11 -90 11 -43 0 -83 5 -90 10 -7 5 -17 7 -22 4 -17 -11 -42
39 -37 70 10 55 30 62 188 61 105 0 160 5 207 17 35 9 70 15 78 12 9 -4 11 -2
7 6 -5 8 -2 9 10 5 11 -5 15 -3 10 5 -5 8 3 9 27 5 20 -4 29 -4 21 2 -18 11
40 33 66 25 13 -5 14 -4 4 4 -11 7 -8 11 11 16 19 4 29 19 46 66 25 69 24 88
-4 104 -11 6 -22 13 -25 16 -3 3 -9 5 -15 5 -48 3 -167 53 -158 68 3 6 1 7 -5
3 -14 -8 -53 24 -45 37 3 6 1 7 -5 3 -6 -3 -15 2 -21 11 -6 10 -11 15 -11 11
0 -10 -29 19 -64 65 -16 20 -25 37 -21 37 5 0 1 8 -7 18 -34 39 -54 109 -63
212 -2 29 9 132 20 190 2 8 4 19 4 23 1 5 5 5 11 2 5 -3 7 0 4 8 -3 8 5 25 18
37 13 13 18 20 12 17 -7 -4 -5 8 4 28 9 19 19 32 24 29 4 -3 8 1 8 8 0 7 12
23 27 35 14 13 22 23 17 23 -5 0 14 15 42 33 28 18 59 41 69 51 10 9 26 15 37
13 10 -3 16 -1 13 3 -3 5 16 16 42 26 63 25 303 25 303 2 0 -6 7 -7 16 -4 12
4 15 2 10 -9 -5 -13 -2 -14 15 -4 17 9 20 8 14 -2 -6 -9 -3 -11 8 -6 10 3 17
2 17 -3 0 -6 9 -10 20 -10 18 0 25 -10 21 -32 0 -4 5 -5 12 -2 7 2 22 -4 34
-15 11 -11 23 -18 26 -15 2 3 15 -7 28 -21 13 -15 34 -37 47 -51 13 -13 20
-24 17 -24 -3 0 3 -9 13 -20 10 -11 25 -40 32 -63 6 -23 16 -46 20 -52 12 -16
23 -75 26 -140 2 -64 -20 -205 -34 -214 -5 -3 -12 -18 -16 -33 -3 -16 -12 -27
-19 -25 -7 1 -11 -6 -9 -16 2 -9 -4 -20 -12 -23 -8 -3 -17 -12 -20 -20 -4 -10
-2 -13 7 -8 6 5 -2 -6 -20 -24 -17 -18 -34 -32 -38 -32 -3 0 -16 -11 -29 -25
-13 -13 -26 -21 -30 -17 -4 4 -6 0 -4 -8 2 -8 -2 -14 -8 -13 -6 1 -11 -9 -11
-22 0 -14 3 -23 7 -20 4 2 15 -4 25 -15 9 -10 23 -16 31 -13 8 3 14 -1 14 -8
0 -7 3 -9 7 -6 3 4 21 -9 40 -28 18 -19 33 -32 33 -30 0 2 13 -8 29 -23 15
-15 27 -28 26 -30 -2 -2 8 -15 21 -29 15 -17 22 -33 19 -45 -5 -13 -2 -16 9
-12 12 4 16 0 16 -16 0 -11 5 -18 10 -15 6 3 10 2 10 -4 0 -5 -6 -12 -12 -14
-8 -3 -5 -6 5 -6 10 -1 15 -5 12 -11 -3 -5 -1 -10 5 -10 6 0 19 -19 29 -42 16
-37 17 -45 5 -59 -8 -9 -12 -24 -8 -33 3 -9 2 -16 -3 -16 -5 0 -9 -10 -10 -21
-1 -12 -7 -27 -14 -33 -9 -8 -10 -7 -4 4 5 9 4 12 -1 7 -9 -9 -10 -13 -13 -43
0 -8 -5 -13 -11 -9 -5 3 -8 11 -6 18 1 7 1 9 -1 4 -3 -4 -10 -4 -16 0 -7 4 -6
-1 2 -10 17 -22 8 -57 -25 -96 -14 -17 -22 -31 -17 -31 4 0 1 -6 -8 -13 -8 -7
-18 -20 -22 -30 -4 -11 -12 -15 -19 -11 -7 5 -9 2 -5 -9 3 -9 0 -18 -9 -21 -8
-3 -14 -13 -14 -22 0 -11 -5 -14 -17 -10 -10 4 -14 4 -10 0 4 -4 0 -16 -10
-26 -9 -10 -13 -18 -9 -18 4 0 -6 -14 -23 -31 -18 -17 -36 -27 -42 -23 -7 4
-9 3 -6 -3 10 -15 -109 -136 -124 -127 -7 4 -9 3 -6 -2 3 -6 -14 -22 -39 -38
-24 -15 -44 -31 -44 -36 0 -4 -21 -21 -46 -38 -42 -27 -48 -28 -73 -16 -29 14
-107 102 -103 116 1 4 -2 8 -8 8 -15 0 -12 64 4 102 29 65 45 136 51 215 6 76
5 82 -14 93 -15 8 -21 8 -21 0 0 -6 -4 -9 -9 -5 -5 3 -12 1 -16 -5 -3 -5 -12
-10 -18 -10 -7 0 -6 4 3 10 8 5 10 10 5 10 -6 0 -15 -4 -20 -9 -34 -30 -249
-66 -295 -49 -13 5 -19 4 -15 -2 4 -6 -10 -10 -35 -10 -30 0 -39 3 -34 13 6 9
4 9 -8 -1 -15 -12 -123 -10 -136 2 -3 4 -1 6 5 6 5 0 20 9 33 20 18 15 24 34
28 75 4 54 5 54 35 51 17 -2 50 2 73 9 24 7 44 12 46 11 2 0 2 1 1 3 -1 2 -51
5 -110 7 -59 1 -136 5 -170 8 -36 3 -63 1 -63 -5 0 -5 28 -9 63 -9 45 0 58 -3
47 -10 -11 -8 -9 -9 10 -5 34 7 50 -6 56 -43 6 -36 -30 -98 -61 -106 -30 -8
-97 -7 -92 2 7 9 -76 7 -93 -3 -7 -4 -16 -2 -21 6 -5 8 -9 9 -9 3 0 -13 -196
-8 -245 6 -16 4 -55 9 -85 9 -30 1 -70 6 -88 12 -41 14 -66 5 -28 -10 71 -28
414 -57 503 -43 29 5 56 5 60 1 19 -19 173 -31 323 -25 128 5 174 11 265 36
61 16 113 30 117 30 4 0 3 -12 -2 -26 -6 -14 -10 -42 -10 -62 0 -38 -27 -144
-54 -218 -26 -71 14 -156 106 -221 l45 -32 99 67 c123 83 305 263 394 390 36
50 91 145 124 209 l59 117 -17 46 c-26 71 -106 196 -167 263 -51 55 -104 91
-164 112 -19 6 -18 8 10 27 56 39 132 129 164 191 42 83 61 157 61 244 0 160
-46 271 -159 383 -83 83 -146 121 -236 145 -71 18 -221 18 -287 0z"/>
<path d="M1528 3393 c-15 -2 -36 -15 -47 -29 -17 -21 -22 -23 -50 -13 -17 6
-47 8 -66 5 -40 -8 -85 -56 -85 -92 0 -13 -9 -33 -20 -44 -35 -35 -16 -110 28
-110 7 0 12 -7 12 -15 0 -7 8 -19 18 -24 16 -9 15 -11 -5 -26 -13 -9 -28 -26
-34 -38 -11 -21 -11 -21 7 -7 10 9 43 27 72 40 53 24 53 24 88 5 28 -15 40
-16 69 -8 33 11 36 10 50 -17 18 -35 66 -53 102 -39 17 6 44 6 79 0 84 -16
171 3 212 46 27 29 32 42 32 82 0 61 -28 101 -71 101 -27 0 -30 2 -23 23 13
36 7 68 -15 91 -17 17 -33 21 -75 20 -32 -1 -64 -8 -77 -18 -32 -22 -46 -20
-53 9 -10 39 -84 68 -148 58z m93 -29 c25 -12 28 -18 18 -30 -10 -12 -9 -13 5
-8 14 6 21 -5 17 -28 -2 -14 36 -8 84 13 54 24 127 20 105 -6 -9 -11 -7 -12 8
-8 24 6 33 -6 25 -35 -5 -19 -8 -21 -22 -10 -14 11 -14 11 -3 -3 7 -9 11 -23
9 -30 -2 -8 -2 -11 0 -7 3 4 11 1 20 -7 8 -8 22 -15 31 -15 36 0 69 -78 42
-95 -9 -6 -9 -9 0 -15 17 -10 -19 -61 -38 -55 -7 3 -10 0 -7 -6 4 -6 -3 -8
-22 -4 -21 5 -24 4 -13 -4 10 -7 -26 -10 -120 -9 -74 0 -143 2 -152 5 -27 7
-64 63 -48 73 8 5 9 10 2 14 -6 3 -13 -2 -17 -13 -8 -27 -41 -32 -91 -15 -33
11 -49 12 -64 4 -31 -16 -77 17 -71 53 1 6 -22 11 -41 8 -5 0 -7 2 -7 7 1 4 1
9 -1 12 -11 28 -7 51 10 63 11 8 17 17 13 20 -3 4 -1 7 6 7 7 0 9 4 6 10 -6
10 20 58 44 78 24 20 109 12 95 -9 -12 -21 16 -7 35 16 11 14 29 28 42 30 12
2 24 7 27 10 10 10 43 5 73 -11z"/>
<path d="M1566 3351 c-17 -6 -17 -8 -4 -14 10 -3 19 0 22 9 3 8 4 14 3 13 -1
0 -11 -4 -21 -8z"/>
<path d="M1600 3349 c0 -5 9 -9 20 -9 11 0 20 2 20 4 0 2 -9 6 -20 9 -11 3
-20 1 -20 -4z"/>
<path d="M1510 3325 c-10 -12 -10 -15 3 -15 8 0 17 7 21 15 3 8 2 15 -3 15 -5
0 -14 -7 -21 -15z"/>
<path d="M1390 3310 c-24 -15 -7 -19 20 -5 15 8 19 14 10 14 -8 1 -22 -3 -30
-9z"/>
<path d="M1480 3290 c0 -5 5 -10 10 -10 6 0 10 5 10 10 0 6 -4 10 -10 10 -5 0
-10 -4 -10 -10z"/>
<path d="M1600 3280 c0 -11 2 -20 4 -20 2 0 6 9 9 20 3 11 1 20 -4 20 -5 0 -9
-9 -9 -20z"/>
<path d="M1340 3275 c-10 -12 -10 -15 3 -15 8 0 17 7 21 15 3 8 2 15 -3 15 -5
0 -14 -7 -21 -15z"/>
<path d="M1765 3280 c3 -5 12 -7 20 -3 21 7 19 13 -6 13 -11 0 -18 -4 -14 -10z"/>
<path d="M1602 3210 c-7 -11 -8 -20 -3 -20 9 0 24 30 18 36 -1 2 -8 -6 -15
-16z"/>
<path d="M1754 3215 c-10 -8 -14 -15 -8 -15 6 0 17 7 24 15 16 19 9 19 -16 0z"/>
<path d="M1796 3194 c-4 -10 -1 -14 6 -12 15 5 23 28 10 28 -5 0 -13 -7 -16
-16z"/>
<path d="M1400 3170 c0 -5 5 -10 10 -10 6 0 10 5 10 10 0 6 -4 10 -10 10 -5 0
-10 -4 -10 -10z"/>
<path d="M1586 3172 c-2 -4 -1 -14 5 -22 7 -12 9 -10 9 8 0 23 -5 28 -14 14z"/>
<path d="M1845 3170 c-18 -8 -17 -9 8 -9 16 -1 26 3 22 9 -3 6 -7 10 -8 9 -1
0 -11 -4 -22 -9z"/>
<path d="M1758 3163 c6 -2 18 -2 25 0 6 3 1 5 -13 5 -14 0 -19 -2 -12 -5z"/>
<path d="M1540 3140 c-9 -6 -10 -10 -3 -10 6 0 15 5 18 10 8 12 4 12 -15 0z"/>
<path d="M1505 3120 c3 -5 8 -10 11 -10 2 0 4 5 4 10 0 6 -5 10 -11 10 -5 0
-7 -4 -4 -10z"/>
<path d="M1470 3110 c0 -5 5 -10 10 -10 6 0 10 5 10 10 0 6 -4 10 -10 10 -5 0
-10 -4 -10 -10z"/>
<path d="M1602 3080 c0 -14 2 -19 5 -12 2 6 2 18 0 25 -3 6 -5 1 -5 -13z"/>
<path d="M1840 3070 c-13 -9 -13 -10 0 -9 8 0 24 4 35 9 20 9 20 9 0 9 -11 0
-27 -4 -35 -9z"/>
<path d="M1615 3050 c-19 -7 -19 -7 4 -15 12 -4 27 -3 33 3 13 13 -11 21 -37
12z"/>
<path d="M1810 3040 c-9 -6 -10 -10 -3 -10 6 0 15 5 18 10 8 12 4 12 -15 0z"/>
<path d="M3062 3386 c-17 -9 -36 -26 -41 -40 -14 -34 -27 -39 -56 -20 -14 9
-48 17 -77 18 -45 1 -53 -2 -56 -19 -3 -19 -2 -19 11 -2 16 19 73 25 61 5 -4
-7 -3 -8 4 -4 6 4 25 0 41 -9 36 -18 71 -20 71 -3 0 15 69 78 85 78 7 0 32 -7
55 -15 48 -17 69 -12 24 6 -49 18 -87 20 -122 5z"/>
<path d="M3825 3390 c-3 -5 -1 -10 4 -10 6 0 11 5 11 10 0 6 -2 10 -4 10 -3 0
-8 -4 -11 -10z"/>
<path d="M3097 3343 c-14 -14 -6 -24 14 -18 14 5 25 2 30 -6 6 -10 11 -11 19
-3 9 9 3 14 -21 23 -38 13 -34 13 -42 4z"/>
<path d="M3217 3339 c7 -7 15 -10 18 -7 3 3 -2 9 -12 12 -14 6 -15 5 -6 -5z"/>
<path d="M2786 3306 c-13 -27 -14 -40 -5 -65 6 -18 14 -30 17 -26 5 4 10 125
6 125 -1 0 -9 -15 -18 -34z"/>
<path d="M3052 3289 c2 -19 -4 -26 -32 -36 l-35 -12 30 -1 c23 0 36 -9 55 -36
13 -20 26 -31 28 -25 2 6 -8 27 -23 46 -18 24 -22 35 -12 35 18 0 17 42 -1 48
-8 2 -11 -5 -10 -19z"/>
<path d="M2873 3290 c-4 -5 -16 -10 -25 -12 -13 -2 -15 -7 -8 -18 9 -13 12
-13 24 3 10 13 21 17 35 12 12 -3 21 -2 21 3 0 13 -36 22 -47 12z"/>
<path d="M3317 3292 c-3 -4 3 -13 14 -20 10 -7 19 -8 19 -3 0 13 -28 33 -33
23z"/>
<path d="M3150 3261 c0 -5 7 -11 15 -15 21 -8 19 -22 -7 -48 -17 -17 -18 -20
-4 -15 10 4 22 7 27 7 5 0 9 6 9 14 0 7 10 17 23 21 21 7 21 7 2 12 -11 3 -24
11 -28 19 -9 15 -37 19 -37 5z"/>
<path d="M3304 3232 c4 -19 1 -21 -20 -18 -14 3 -39 -2 -57 -9 l-32 -14 33 -1
c18 0 31 4 27 9 -3 6 9 7 30 4 36 -6 40 -1 24 32 -9 19 -9 18 -5 -3z"/>
<path d="M3345 3232 c-15 -15 -1 -22 30 -16 54 10 85 -35 52 -77 -15 -19 -47
-32 -47 -19 0 6 -5 10 -12 10 -8 0 -7 -6 4 -16 24 -24 54 -9 73 38 16 40 15
42 -4 62 -19 18 -83 30 -96 18z"/>
<path d="M2728 3196 c-43 -32 -40 -127 5 -174 43 -45 155 -66 212 -40 20 9 34
9 60 -1 47 -17 100 2 118 41 12 28 27 38 27 18 0 -5 10 -10 22 -10 19 0 17 3
-12 18 l-34 19 -16 -31 c-11 -23 -25 -34 -54 -41 -34 -8 -41 -7 -56 13 -15 18
-19 19 -24 6 -3 -8 -10 -13 -15 -9 -5 3 -12 1 -16 -5 -18 -29 -180 3 -203 40
-10 17 -9 20 14 26 14 4 30 2 37 -5 6 -6 20 -11 31 -11 11 0 28 -7 38 -17 10
-9 18 -11 18 -5 0 10 -36 36 -52 37 -4 0 -23 18 -42 40 -20 22 -36 34 -36 27
0 -8 10 -23 23 -34 18 -16 18 -19 4 -14 -10 3 -25 -1 -34 -10 -24 -24 -33 -4
-21 49 7 36 16 51 34 59 13 6 24 15 24 20 0 12 -33 9 -52 -6z"/>
<path d="M2870 3203 c1 -14 24 -39 47 -51 31 -17 55 -14 83 9 20 17 21 19 5
14 -50 -19 -72 -17 -98 9 -27 27 -37 32 -37 19z"/>
<path d="M3295 3180 c-4 -6 -15 -8 -26 -5 -11 4 -19 2 -19 -4 0 -6 9 -11 19
-11 10 0 21 -7 25 -15 6 -17 56 -21 56 -5 0 6 -10 10 -21 10 -16 0 -20 5 -16
20 5 21 -7 28 -18 10z"/>
<path d="M2790 3172 c0 -5 20 -12 45 -14 52 -4 47 7 -7 17 -24 5 -38 3 -38 -3z"/>
<path d="M3136 3162 c-3 -5 1 -15 9 -22 9 -7 13 -21 10 -31 -4 -11 -2 -19 4
-19 6 0 11 5 11 10 0 7 6 7 18 2 18 -10 62 1 62 16 0 5 -13 7 -29 4 -21 -3
-35 3 -53 23 -14 15 -28 23 -32 17z"/>
<path d="M3038 3141 c-56 -21 -70 -31 -40 -31 28 0 102 30 102 41 0 12 -6 11
-62 -10z"/>
<path d="M2818 3113 c7 -3 16 -2 19 1 4 3 -2 6 -13 5 -11 0 -14 -3 -6 -6z"/>
<path d="M3072 3075 c-6 -14 -16 -25 -22 -25 -5 0 -10 -4 -10 -10 0 -5 6 -10
14 -10 14 0 46 41 46 60 0 19 -17 10 -28 -15z"/>
<path d="M2901 3080 c-19 -11 13 -20 75 -20 33 0 54 4 54 11 0 7 -12 9 -32 7
-18 -3 -45 -2 -59 2 -14 4 -32 4 -38 0z"/>
<path d="M3320 3080 c-13 -8 -12 -10 3 -10 9 0 17 5 17 10 0 12 -1 12 -20 0z"/>
<path d="M3361 3077 c-8 -11 -3 -20 22 -43 21 -19 25 -21 12 -5 -11 13 -19 32
-17 42 4 22 -1 24 -17 6z"/>
<path d="M3237 3066 c-5 -12 0 -16 16 -16 13 0 42 -9 65 -20 49 -24 59 -25 42
-5 -7 8 -21 15 -31 15 -10 0 -24 9 -31 19 -9 16 -15 17 -26 9 -10 -9 -15 -9
-21 1 -6 10 -10 9 -14 -3z"/>
<path d="M2935 3040 c-3 -5 -1 -10 4 -10 6 0 11 5 11 10 0 6 -2 10 -4 10 -3 0
-8 -4 -11 -10z"/>
<path d="M4090 2900 c-12 -8 -10 -10 8 -10 13 0 20 4 17 10 -7 12 -6 12 -25 0z"/>
<path d="M4090 2551 c0 -5 5 -13 10 -16 6 -3 10 -2 10 4 0 5 -4 13 -10 16 -5
3 -10 2 -10 -4z"/>
<path d="M1200 2464 c-18 -8 -68 -50 -110 -92 -130 -134 -200 -307 -200 -490
l1 -87 48 -69 c115 -162 285 -326 442 -425 98 -61 103 -63 138 -52 20 6 67 30
105 53 54 33 78 56 103 98 40 64 40 91 0 192 -13 35 -27 96 -31 138 -6 66 -18
102 -30 89 -5 -6 14 -161 23 -184 24 -57 28 -72 25 -100 -2 -18 0 -25 5 -17 6
10 10 8 14 -10 9 -32 9 -40 -2 -34 -5 3 -12 -1 -15 -10 -3 -8 -2 -12 4 -9 18
11 10 -15 -16 -55 -27 -41 -116 -104 -130 -92 -4 4 -4 1 0 -5 4 -7 2 -14 -3
-14 -16 -2 -23 -4 -54 -17 -25 -11 -34 -9 -73 14 -24 14 -44 30 -44 35 0 5 -6
8 -12 6 -7 -1 -12 3 -11 10 2 8 -4 10 -14 6 -10 -4 -14 -2 -9 5 3 6 1 14 -5
18 -8 4 -9 3 -5 -4 4 -7 2 -12 -4 -12 -6 0 -13 6 -16 14 -3 7 -20 22 -39 32
-19 10 -31 22 -29 26 3 5 2 7 -3 6 -21 -7 -258 235 -245 250 2 2 0 7 -4 10 -4
4 -4 1 1 -7 5 -9 4 -12 -3 -7 -7 4 -12 14 -12 22 0 8 -4 14 -9 14 -11 0 -54
69 -54 87 0 7 -4 10 -9 7 -6 -4 -7 34 -4 90 7 121 16 176 28 176 5 0 6 5 3 11
-8 13 14 69 27 69 5 0 7 4 4 9 -4 5 -1 11 4 13 6 2 13 15 15 30 9 48 99 163
118 151 6 -3 7 -1 4 4 -9 14 62 72 122 100 37 18 41 22 21 22 -14 0 -41 -7
-60 -15z"/>
<path d="M2275 2020 c-25 -16 -27 -20 -10 -20 26 0 48 15 44 29 -3 7 -15 3
-34 -9z"/>
<path d="M2108 2023 c6 -2 18 -2 25 0 6 3 1 5 -13 5 -14 0 -19 -2 -12 -5z"/>
<path d="M4346 2011 c-3 -5 1 -11 9 -14 9 -4 12 -1 8 9 -6 16 -10 17 -17 5z"/>
<path d="M3980 1967 c0 -9 40 -35 44 -28 3 4 -6 13 -19 19 -14 7 -25 10 -25 9z"/>
<path d="M196 1807 c3 -10 9 -15 12 -12 3 3 0 11 -7 18 -10 9 -11 8 -5 -6z"/>
<path d="M370 1799 c0 -11 27 -12 34 -1 2 4 -4 9 -15 9 -10 1 -19 -2 -19 -8z"/>
<path d="M4340 1762 c0 -5 7 -13 16 -16 10 -4 14 -1 12 6 -5 15 -28 23 -28 10z"/>
<path d="M4355 1640 c-3 -6 4 -9 19 -8 13 1 22 6 20 10 -7 11 -32 10 -39 -2z"/>
<path d="M495 1630 c3 -5 8 -10 11 -10 2 0 4 5 4 10 0 6 -5 10 -11 10 -5 0 -7
-4 -4 -10z"/>
<path d="M410 1580 c0 -5 5 -10 11 -10 5 0 7 5 4 10 -3 6 -8 10 -11 10 -2 0
-4 -4 -4 -10z"/>
<path d="M305 1570 c-3 -5 1 -10 10 -10 9 0 13 5 10 10 -3 6 -8 10 -10 10 -2
0 -7 -4 -10 -10z"/>
<path d="M4410 1570 c8 -5 20 -10 25 -10 6 0 3 5 -5 10 -8 5 -19 10 -25 10 -5
0 -3 -5 5 -10z"/>
<path d="M4301 1554 c0 -11 3 -14 6 -6 3 7 2 16 -1 19 -3 4 -6 -2 -5 -13z"/>
<path d="M4320 1550 c0 -5 5 -10 11 -10 5 0 7 5 4 10 -3 6 -8 10 -11 10 -2 0
-4 -4 -4 -10z"/>
<path d="M4390 1450 c0 -5 5 -10 11 -10 5 0 7 5 4 10 -3 6 -8 10 -11 10 -2 0
-4 -4 -4 -10z"/>
<path d="M4328 1443 c6 -2 18 -2 25 0 6 3 1 5 -13 5 -14 0 -19 -2 -12 -5z"/>
<path d="M530 1430 c0 -5 5 -10 11 -10 5 0 7 5 4 10 -3 6 -8 10 -11 10 -2 0
-4 -4 -4 -10z"/>
<path d="M285 1384 c9 -9 19 -13 23 -10 3 4 0 11 -8 16 -24 15 -33 11 -15 -6z"/>
<path d="M175 1380 c3 -5 11 -10 16 -10 6 0 7 5 4 10 -3 6 -11 10 -16 10 -6 0
-7 -4 -4 -10z"/>
<path d="M390 1370 c0 -5 5 -10 11 -10 5 0 7 5 4 10 -3 6 -8 10 -11 10 -2 0
-4 -4 -4 -10z"/>
<path d="M1660 1369 c0 -5 5 -7 10 -4 6 3 10 8 10 11 0 2 -4 4 -10 4 -5 0 -10
-5 -10 -11z"/>
<path d="M374 1264 c3 -9 6 -19 6 -22 0 -9 20 21 20 31 0 4 -7 7 -16 7 -11 0
-14 -5 -10 -16z"/>
<path d="M187 1236 c-4 -10 -3 -15 3 -11 6 3 10 1 10 -6 0 -7 3 -10 6 -6 3 3
2 13 -4 22 -8 16 -9 16 -15 1z"/>
<path d="M648 1223 c7 -3 16 -2 19 1 4 3 -2 6 -13 5 -11 0 -14 -3 -6 -6z"/>
<path d="M3764 1218 c-3 -4 4 -8 15 -8 12 0 21 4 21 8 0 5 -7 9 -15 9 -9 0
-18 -4 -21 -9z"/>
<path d="M853 1205 c-17 -19 -16 -25 2 -25 8 0 15 9 15 20 0 23 -1 24 -17 5z"/>
<path d="M326 1194 c-5 -14 -4 -15 9 -4 17 14 19 20 6 20 -5 0 -12 -7 -15 -16z"/>
<path d="M140 1130 c0 -5 5 -10 10 -10 6 0 10 5 10 10 0 6 -4 10 -10 10 -5 0
-10 -4 -10 -10z"/>
<path d="M220 1070 c0 -5 5 -10 11 -10 5 0 7 5 4 10 -3 6 -8 10 -11 10 -2 0
-4 -4 -4 -10z"/>
<path d="M4438 1073 c7 -3 16 -2 19 1 4 3 -2 6 -13 5 -11 0 -14 -3 -6 -6z"/>
<path d="M105 1050 c-3 -5 -1 -10 4 -10 6 0 11 5 11 10 0 6 -2 10 -4 10 -3 0
-8 -4 -11 -10z"/>
<path d="M2938 1054 c-4 -6 -59 -29 -123 -50 l-115 -39 0 -86 0 -87 118 40
c64 21 121 43 125 47 4 4 7 48 5 97 -2 49 -6 84 -10 78z m-8 -54 c0 -5 -3 -10
-7 -10 -5 0 -8 -24 -8 -52 l0 -53 -80 -27 c-116 -39 -115 -39 -115 32 0 51 2
59 17 53 10 -4 14 -2 10 4 -5 7 6 14 25 18 18 4 39 12 46 18 10 8 16 7 23 -4
8 -13 10 -11 8 9 0 7 35 19 64 21 9 1 17 -3 17 -9z"/>
<path d="M1201 1024 c0 -11 3 -14 6 -6 3 7 2 16 -1 19 -3 4 -6 -2 -5 -13z"/>
<path d="M1670 927 c0 -73 3 -86 18 -91 99 -30 197 -56 211 -56 14 0 16 12 15
83 -1 72 -3 82 -20 85 -20 4 -190 51 -211 59 -10 4 -13 -16 -13 -80z m50 45
c0 -4 8 -8 18 -9 49 -5 81 -16 75 -26 -4 -6 0 -8 10 -4 9 3 29 2 44 -4 29 -10
30 -12 25 -100 l-2 -26 -72 16 c-40 10 -83 23 -94 29 -12 6 -24 8 -28 5 -3 -3
-6 24 -6 60 0 53 3 67 15 67 8 0 15 -4 15 -8z"/>
<path d="M3230 980 c0 -5 5 -10 11 -10 5 0 7 5 4 10 -3 6 -8 10 -11 10 -2 0
-4 -4 -4 -10z"/>
<path d="M160 956 c0 -2 7 -9 15 -16 9 -7 15 -8 15 -2 0 5 -7 12 -15 16 -8 3
-15 4 -15 2z"/>
<path d="M1048 953 c6 -2 18 -2 25 0 6 3 1 5 -13 5 -14 0 -19 -2 -12 -5z"/>
<path d="M2488 927 l-68 -9 0 -84 c0 -47 4 -84 10 -84 5 0 43 5 85 11 l75 11
-2 84 c-2 69 -5 84 -18 83 -8 -1 -45 -6 -82 -12z m70 -79 c-3 -52 -6 -62 -23
-64 -11 -1 -37 -5 -57 -8 l-38 -6 0 63 0 63 32 2 c18 2 34 5 37 7 2 3 15 5 28
5 23 0 24 -3 21 -62z"/>
<path d="M4008 933 c7 -3 16 -2 19 1 4 3 -2 6 -13 5 -11 0 -14 -3 -6 -6z"/>
<path d="M925 920 c-3 -5 -1 -10 4 -10 6 0 11 5 11 10 0 6 -2 10 -4 10 -3 0
-8 -4 -11 -10z"/>
<path d="M2034 919 c-3 -5 -4 -44 -2 -87 l2 -79 50 -2 c28 -1 59 -4 69 -7 15
-5 17 4 17 86 0 70 -3 91 -12 87 -7 -2 -37 -1 -66 3 -29 3 -55 3 -58 -1z m114
-39 c1 0 2 -24 1 -52 l-2 -53 -43 -3 -44 -3 0 60 c0 65 7 73 55 59 16 -4 31
-8 33 -8z"/>
<path d="M4308 913 c7 -3 16 -2 19 1 4 3 -2 6 -13 5 -11 0 -14 -3 -6 -6z"/>
<path d="M4150 889 c0 -5 5 -7 10 -4 6 3 10 8 10 11 0 2 -4 4 -10 4 -5 0 -10
-5 -10 -11z"/>
<path d="M4340 890 c0 -5 5 -10 10 -10 6 0 10 5 10 10 0 6 -4 10 -10 10 -5 0
-10 -4 -10 -10z"/>
<path d="M3678 868 c-10 -10 -14 -18 -9 -18 10 0 36 29 30 34 -2 1 -12 -6 -21
-16z"/>
<path d="M3020 865 c0 -9 6 -12 15 -9 8 4 15 10 15 15 0 5 -7 9 -15 9 -8 0
-15 -7 -15 -15z"/>
<path d="M87 859 c7 -7 15 -10 18 -7 3 3 -2 9 -12 12 -14 6 -15 5 -6 -5z"/>
<path d="M1448 863 c7 -3 16 -2 19 1 4 3 -2 6 -13 5 -11 0 -14 -3 -6 -6z"/>
<path d="M835 850 c4 -6 11 -8 16 -5 14 9 11 15 -7 15 -8 0 -12 -5 -9 -10z"/>
<path d="M4186 852 c-3 -5 1 -9 9 -9 8 0 12 4 9 9 -3 4 -7 8 -9 8 -2 0 -6 -4
-9 -8z"/>
<path d="M4260 840 c-12 -7 -10 -9 8 -7 12 0 22 5 22 9 0 11 -12 10 -30 -2z"/>
<path d="M4355 839 c-4 -6 -5 -12 -2 -15 2 -3 7 2 10 11 7 17 1 20 -8 4z"/>
<path d="M196 827 c3 -10 9 -15 12 -12 3 3 0 11 -7 18 -10 9 -11 8 -5 -6z"/>
<path d="M26 795 c4 -8 10 -15 15 -15 5 0 9 7 9 15 0 8 -7 15 -15 15 -9 0 -12
-6 -9 -15z"/>
<path d="M2635 780 c-16 -7 -13 -9 18 -9 20 -1 37 4 37 9 0 12 -27 12 -55 0z"/>
<path d="M1927 767 c-4 -11 0 -13 14 -10 10 3 19 0 19 -6 0 -6 5 -11 10 -11 6
0 10 7 10 15 0 8 -4 15 -9 15 -5 0 -16 3 -24 6 -8 3 -17 -1 -20 -9z"/>
<path d="M78 763 c6 -2 18 -2 25 0 6 3 1 5 -13 5 -14 0 -19 -2 -12 -5z"/>
<path d="M1990 760 c0 -5 7 -10 16 -10 8 0 12 5 9 10 -3 6 -10 10 -16 10 -5 0
-9 -4 -9 -10z"/>
<path d="M2590 750 c0 -5 5 -10 10 -10 6 0 10 5 10 10 0 6 -4 10 -10 10 -5 0
-10 -4 -10 -10z"/>
<path d="M2656 752 c-3 -5 1 -9 9 -9 8 0 12 4 9 9 -3 4 -7 8 -9 8 -2 0 -6 -4
-9 -8z"/>
<path d="M2335 739 c-25 -5 -20 -7 24 -8 30 0 52 1 49 4 -9 10 -42 12 -73 4z"/>
<path d="M4280 746 c0 -2 7 -7 16 -10 8 -3 12 -2 9 4 -6 10 -25 14 -25 6z"/>
<path d="M2203 733 c9 -2 25 -2 35 0 9 3 1 5 -18 5 -19 0 -27 -2 -17 -5z"/>
<path d="M2278 733 c7 -3 16 -2 19 1 4 3 -2 6 -13 5 -11 0 -14 -3 -6 -6z"/>
<path d="M1150 715 c0 -8 5 -15 10 -15 6 0 10 7 10 15 0 8 -4 15 -10 15 -5 0
-10 -7 -10 -15z"/>
<path d="M4135 720 c-3 -5 -2 -10 4 -10 5 0 13 5 16 10 3 6 2 10 -4 10 -5 0
-13 -4 -16 -10z"/>
<path d="M3550 711 c0 -5 7 -15 17 -22 15 -13 15 -12 4 9 -12 23 -21 28 -21
13z"/>
<path d="M3801 684 c0 -11 3 -14 6 -6 3 7 2 16 -1 19 -3 4 -6 -2 -5 -13z"/>
<path d="M4222 671 c-11 -7 -11 -9 0 -14 9 -3 15 1 15 9 0 8 -1 14 -1 14 -1 0
-7 -4 -14 -9z"/>
<path d="M150 640 c0 -5 7 -10 15 -10 8 0 15 5 15 10 0 6 -7 10 -15 10 -8 0
-15 -4 -15 -10z"/>
<path d="M780 623 c8 -3 19 -11 23 -17 6 -7 7 -6 4 4 -2 8 -12 16 -23 17 -13
2 -15 1 -4 -4z"/>
<path d="M2346 590 c-9 -24 -20 -102 -27 -202 -11 -166 -7 -261 13 -285 13
-16 60 -17 76 -1 17 17 15 99 -4 153 -15 46 -15 46 10 66 14 11 28 28 31 39
12 38 22 20 17 -34 -5 -68 9 -96 48 -96 29 0 30 1 30 53 0 56 35 177 52 177 8
0 6 -18 -10 -58 -3 -10 2 -13 19 -10 19 2 25 10 27 34 4 36 -19 65 -45 57 -21
-5 -68 -73 -51 -73 6 0 5 -7 -3 -17 -8 -9 -13 -18 -11 -20 2 -2 1 -17 -3 -34
-5 -23 -10 -27 -20 -19 -13 11 -11 60 4 89 6 10 7 21 3 25 -3 4 1 4 11 0 13
-4 17 -1 17 15 0 15 -6 21 -24 21 -19 0 -25 -7 -30 -35 -5 -25 -12 -35 -26
-35 -11 0 -32 -20 -53 -52 -34 -50 -35 -52 -21 -91 16 -46 20 -151 4 -127 -5
8 -10 42 -11 75 0 43 -3 54 -9 40 -10 -24 -11 -24 -15 49 -4 51 -3 57 9 41 13
-18 14 -18 19 1 8 23 27 213 27 260 0 50 -33 47 -54 -6z m24 -85 c0 -8 -4 -15
-10 -15 -5 0 -7 7 -4 15 4 8 8 15 10 15 2 0 4 -7 4 -15z m-16 -120 c3 -8 1
-15 -4 -15 -6 0 -10 7 -10 15 0 8 2 15 4 15 2 0 6 -7 10 -15z m156 -115 c0 -5
-5 -10 -11 -10 -5 0 -7 5 -4 10 3 6 8 10 11 10 2 0 4 -4 4 -10z"/>
<path d="M2671 611 c-6 -11 -11 -29 -11 -41 0 -18 5 -21 33 -18 29 3 32 6 32
38 0 28 -4 36 -22 38 -14 2 -26 -4 -32 -17z"/>
<path d="M3325 600 c-8 -16 -20 -52 -26 -80 -10 -46 -13 -50 -40 -50 -55 0
-99 -72 -99 -163 0 -50 15 -77 43 -77 28 0 67 26 67 46 0 8 5 14 10 14 6 0 10
-12 10 -26 0 -46 48 -114 81 -114 16 0 16 3 2 48 -12 37 -13 79 -9 202 4 85 9
172 12 193 6 33 4 37 -15 37 -13 0 -26 -11 -36 -30z m18 -72 c-5 -7 -9 -75 -9
-150 1 -133 -5 -170 -17 -108 -4 20 -13 30 -24 30 -15 0 -16 2 -3 10 13 9 13
10 0 10 -13 0 -13 1 0 10 8 5 11 12 7 16 -4 4 -3 12 2 18 14 19 21 60 11 76
-5 9 -5 17 1 21 5 3 11 19 13 35 2 16 4 32 5 37 0 4 6 7 12 7 8 0 8 -4 2 -12z
m-63 -93 c9 -11 9 -24 -4 -62 -20 -59 -52 -113 -67 -113 -17 0 -4 90 20 145
21 48 31 54 51 30z"/>
<path d="M4000 620 c-13 -8 -12 -10 3 -10 9 0 17 5 17 10 0 12 -1 12 -20 0z"/>
<path d="M4280 616 c0 -17 16 -30 23 -19 3 5 -1 14 -9 21 -12 10 -14 10 -14
-2z"/>
<path d="M3928 613 c7 -3 16 -2 19 1 4 3 -2 6 -13 5 -11 0 -14 -3 -6 -6z"/>
<path d="M3245 591 c-3 -5 2 -11 10 -15 8 -3 17 -1 20 3 3 5 -2 11 -10 15 -8
3 -17 1 -20 -3z"/>
<path d="M4030 591 c0 -5 -8 -12 -17 -14 -14 -4 -12 -5 5 -6 13 -1 22 5 22 14
0 8 -2 15 -5 15 -3 0 -5 -4 -5 -9z"/>
<path d="M1245 579 c-4 -6 -5 -12 -2 -15 2 -3 7 2 10 11 7 17 1 20 -8 4z"/>
<path d="M3855 580 c-3 -5 1 -10 9 -10 9 0 16 5 16 10 0 6 -4 10 -9 10 -6 0
-13 -4 -16 -10z"/>
<path d="M1300 570 c0 -5 5 -10 11 -10 5 0 7 5 4 10 -3 6 -8 10 -11 10 -2 0
-4 -4 -4 -10z"/>
<path d="M1381 544 c0 -11 3 -14 6 -6 3 7 2 16 -1 19 -3 4 -6 -2 -5 -13z"/>
<path d="M3070 550 c0 -5 5 -10 11 -10 5 0 7 5 4 10 -3 6 -8 10 -11 10 -2 0
-4 -4 -4 -10z"/>
<path d="M4045 540 c3 -5 8 -10 11 -10 2 0 4 5 4 10 0 6 -5 10 -11 10 -5 0 -7
-4 -4 -10z"/>
<path d="M1293 533 c-17 -6 -16 -30 1 -36 10 -4 13 2 12 19 0 13 -1 24 -1 23
0 0 -6 -3 -12 -6z"/>
<path d="M1560 515 c0 -8 4 -15 10 -15 5 0 7 7 4 15 -4 8 -8 15 -10 15 -2 0
-4 -7 -4 -15z"/>
<path d="M3240 524 c0 -3 7 -12 15 -20 13 -13 15 -13 15 -1 0 8 -7 17 -15 21
-8 3 -15 3 -15 0z"/>
<path d="M3940 520 c0 -5 5 -10 11 -10 5 0 7 5 4 10 -3 6 -8 10 -11 10 -2 0
-4 -4 -4 -10z"/>
<path d="M340 511 c0 -6 4 -13 10 -16 6 -3 7 1 4 9 -7 18 -14 21 -14 7z"/>
<path d="M1450 501 c0 -6 4 -13 10 -16 6 -3 7 1 4 9 -7 18 -14 21 -14 7z"/>
<path d="M3064 503 c-17 -11 -83 -152 -90 -191 -5 -23 -9 -30 -15 -21 -4 7 -4
20 0 28 4 9 6 27 5 41 -2 14 -1 32 2 40 4 12 6 13 14 0 7 -11 11 -8 19 13 18
47 14 67 -13 67 -34 0 -51 -48 -51 -150 0 -85 0 -85 27 -88 24 -3 28 1 34 35
7 43 75 203 86 203 4 0 6 -46 5 -102 -2 -119 13 -178 45 -178 15 0 18 4 12 18
-4 9 -10 78 -13 152 -6 135 -6 135 -31 138 -14 1 -30 -1 -36 -5z m-81 -68 c-3
-9 -8 -14 -10 -11 -3 3 -2 9 2 15 9 16 15 13 8 -4z"/>
<path d="M4078 503 c7 -3 16 -2 19 1 4 3 -2 6 -13 5 -11 0 -14 -3 -6 -6z"/>
<path d="M2900 496 c0 -2 7 -7 16 -10 8 -3 12 -2 9 4 -6 10 -25 14 -25 6z"/>
<path d="M1070 473 c12 -25 25 -29 36 -11 5 7 3 8 -5 4 -7 -5 -19 0 -27 10
-14 18 -14 18 -4 -3z"/>
<path d="M2087 482 c-17 -3 -42 -47 -38 -66 4 -16 -11 -46 -20 -41 -5 3 -6 -1
-3 -9 4 -11 0 -16 -11 -16 -13 0 -16 5 -10 23 4 12 7 30 6 40 0 9 7 17 15 17
8 0 14 9 14 20 0 27 -36 27 -50 0 -6 -11 -13 -55 -17 -98 -7 -94 4 -122 47
-122 29 0 30 1 30 52 0 54 36 178 52 178 8 0 5 -18 -9 -57 -3 -9 4 -13 21 -13
24 0 26 4 26 40 0 42 -19 60 -53 52z m-67 -173 c0 -21 -16 -26 -23 -6 -6 17 3
38 14 31 5 -3 9 -14 9 -25z m5 -47 c-3 -3 -11 0 -18 7 -9 10 -8 11 6 5 10 -3
15 -9 12 -12z"/>
<path d="M2662 465 c-7 -14 -12 -58 -12 -98 0 -81 17 -117 54 -117 22 0 23 1
19 108 -3 59 -6 113 -8 120 -7 21 -41 13 -53 -13z m31 -83 c-7 -93 -15 -93
-12 0 2 42 6 75 10 72 4 -2 5 -35 2 -72z m7 -92 c0 -5 -4 -10 -10 -10 -5 0
-10 5 -10 10 0 6 5 10 10 10 6 0 10 -4 10 -10z"/>
<path d="M3853 470 c-1 -11 2 -18 8 -15 11 7 12 35 1 35 -4 0 -8 -9 -9 -20z"/>
<path d="M1565 456 c-23 -24 -45 -82 -45 -123 0 -18 -25 -43 -43 -43 -2 0 -7
30 -11 66 -8 82 -20 106 -49 102 -17 -2 -23 -12 -29 -47 -12 -68 -76 -168
-103 -158 -18 7 -20 87 -4 156 11 50 2 67 -27 47 -16 -12 -20 -29 -22 -113 -4
-114 4 -130 61 -119 51 10 93 64 117 150 10 38 15 45 20 30 4 -10 3 -29 -1
-42 -6 -15 -5 -21 1 -17 9 6 14 -14 11 -42 -1 -7 3 -13 9 -13 17 0 11 -19 -10
-30 -17 -9 -20 -7 -20 12 0 42 -3 57 -12 52 -4 -3 -8 -22 -8 -43 0 -31 -8 -46
-45 -84 -74 -77 -74 -127 -2 -127 77 0 119 50 118 142 0 39 4 49 25 63 14 9
27 15 28 13 1 -2 10 -15 19 -30 15 -24 24 -28 66 -28 42 0 53 4 73 29 14 16
39 32 56 36 28 6 32 4 32 -14 0 -21 34 -51 59 -51 8 0 25 10 38 22 22 21 23
21 23 1 0 -26 40 -63 68 -63 26 0 27 8 6 35 -11 14 -14 45 -13 124 1 90 -1
107 -17 118 -28 21 -38 11 -52 -53 -35 -163 -41 -179 -64 -155 -9 8 -13 44
-12 112 1 76 -1 99 -12 99 -20 0 -24 -14 -27 -84 -1 -42 -6 -66 -14 -66 -6 0
-18 -3 -27 -6 -13 -5 -13 0 -5 31 12 44 -3 98 -34 120 -34 23 -94 19 -122 -9z
m45 -16 c0 -5 -5 -10 -11 -10 -5 0 -7 5 -4 10 3 6 8 10 11 10 2 0 4 -4 4 -10z
m64 -12 c3 -13 6 -43 6 -67 l0 -44 -24 22 c-27 26 -40 63 -31 92 9 26 41 24
49 -3z m256 -39 c0 -16 -3 -29 -7 -29 -5 0 -8 -11 -8 -24 0 -13 4 -22 9 -18 5
3 6 -2 3 -12 -4 -10 -7 -25 -7 -34 0 -14 -4 -13 -22 5 -17 18 -19 25 -9 37 7
8 12 25 11 38 -1 13 -1 28 0 33 5 16 8 29 9 38 3 21 21 -8 21 -34z m-330 21
c0 -18 -23 -59 -36 -64 -8 -3 -14 -1 -14 4 0 6 6 10 13 11 9 0 9 2 0 5 -20 9
5 53 30 54 4 0 7 -4 7 -10z m20 -80 c11 -11 27 -20 35 -20 19 0 19 -10 -1 -38
-32 -45 -64 -21 -64 51 0 32 4 33 30 7z m-57 -20 c-3 -11 -7 -20 -9 -20 -2 0
-4 9 -4 20 0 11 4 20 9 20 5 0 7 -9 4 -20z m-113 -79 c0 -30 -11 -51 -26 -51
-13 0 -17 10 -11 28 1 4 6 6 10 4 5 -1 6 2 2 8 -7 12 2 30 16 30 5 0 9 -9 9
-19z m-65 -110 c-15 -31 -45 -43 -45 -18 0 7 12 30 27 52 25 35 28 38 31 18 2
-12 -4 -35 -13 -52z m50 20 c-3 -6 -11 -11 -17 -11 -6 0 -6 6 2 15 14 17 26
13 15 -4z"/>
<path d="M3920 470 c0 -5 5 -10 11 -10 5 0 7 5 4 10 -3 6 -8 10 -11 10 -2 0
-4 -4 -4 -10z"/>
<path d="M2813 460 c-39 -16 -63 -68 -63 -136 0 -75 14 -89 84 -85 25 1 95 73
78 79 -8 2 -29 -11 -48 -29 -35 -34 -33 -34 -48 15 -2 7 16 30 40 50 34 28 44
44 44 66 0 43 -37 60 -87 40z m57 -34 c0 -15 -50 -80 -56 -73 -2 2 4 22 13 45
15 40 43 58 43 28z m-74 -43 c-2 -21 -4 -54 -5 -73 l-3 -35 -10 28 c-7 20 -7
41 2 73 15 54 20 56 16 7z"/>
<path d="M3170 455 c0 -8 2 -15 4 -15 2 0 6 7 10 15 3 8 1 15 -4 15 -6 0 -10
-7 -10 -15z"/>
<path d="M3960 460 c0 -5 5 -10 11 -10 5 0 7 5 4 10 -3 6 -8 10 -11 10 -2 0
-4 -4 -4 -10z"/>
<path d="M4017 431 c24 -23 33 -26 33 -13 0 5 -12 14 -27 21 l-28 13 22 -21z"/>
<path d="M4112 441 c-11 -6 -10 -10 4 -15 9 -3 19 -4 22 -1 3 3 0 5 -7 5 -7 0
-9 5 -6 10 7 12 4 12 -13 1z"/>
<path d="M835 430 c-3 -5 -1 -10 4 -10 6 0 11 5 11 10 0 6 -2 10 -4 10 -3 0
-8 -4 -11 -10z"/>
<path d="M1311 424 c0 -11 3 -14 6 -6 3 7 2 16 -1 19 -3 4 -6 -2 -5 -13z"/>
<path d="M880 420 c0 -5 4 -10 9 -10 6 0 13 5 16 10 3 6 -1 10 -9 10 -9 0 -16
-4 -16 -10z"/>
<path d="M1093 416 c1 -11 9 -21 17 -23 10 -3 11 -2 4 4 -6 4 -14 15 -17 23
-5 11 -6 9 -4 -4z"/>
<path d="M4093 413 c-15 -5 -17 -23 -4 -23 5 0 11 7 15 15 3 8 4 15 3 14 -1 0
-8 -3 -14 -6z"/>
<path d="M227 383 c-4 -3 -7 -11 -7 -17 0 -6 5 -5 12 2 6 6 9 14 7 17 -3 3 -9
2 -12 -2z"/>
<path d="M265 380 c3 -5 13 -10 21 -10 8 0 14 5 14 10 0 6 -9 10 -21 10 -11 0
-17 -4 -14 -10z"/>
<path d="M905 380 c3 -5 8 -10 11 -10 2 0 4 5 4 10 0 6 -5 10 -11 10 -5 0 -7
-4 -4 -10z"/>
<path d="M2155 381 c-3 -5 -2 -12 3 -15 5 -3 9 1 9 9 0 17 -3 19 -12 6z"/>
<path d="M3740 380 c0 -5 5 -10 11 -10 5 0 7 5 4 10 -3 6 -8 10 -11 10 -2 0
-4 -4 -4 -10z"/>
<path d="M3778 383 c7 -3 16 -2 19 1 4 3 -2 6 -13 5 -11 0 -14 -3 -6 -6z"/>
<path d="M1322 364 c-7 -8 -8 -14 -3 -14 10 0 25 19 20 25 -2 1 -10 -3 -17
-11z"/>
<path d="M2082 345 c0 -16 2 -22 5 -12 2 9 2 23 0 30 -3 6 -5 -1 -5 -18z"/>
<path d="M2495 360 c3 -5 8 -10 11 -10 2 0 4 5 4 10 0 6 -5 10 -11 10 -5 0 -7
-4 -4 -10z"/>
<path d="M3715 360 c3 -5 8 -10 11 -10 2 0 4 5 4 10 0 6 -5 10 -11 10 -5 0 -7
-4 -4 -10z"/>
<path d="M990 300 c0 -5 5 -10 11 -10 5 0 7 5 4 10 -3 6 -8 10 -11 10 -2 0 -4
-4 -4 -10z"/>
<path d="M3700 300 c0 -5 5 -10 10 -10 6 0 10 5 10 10 0 6 -4 10 -10 10 -5 0
-10 -4 -10 -10z"/>
<path d="M4025 300 c3 -5 11 -10 16 -10 6 0 7 5 4 10 -3 6 -11 10 -16 10 -6 0
-7 -4 -4 -10z"/>
<path d="M2269 298 c-5 -19 -8 -50 -4 -46 7 7 15 48 9 48 -2 0 -4 -1 -5 -2z"/>
<path d="M1176 281 c-4 -7 -5 -15 -2 -18 9 -9 19 4 14 18 -4 11 -6 11 -12 0z"/>
<path d="M300 250 c0 -5 5 -10 10 -10 6 0 10 5 10 10 0 6 -4 10 -10 10 -5 0
-10 -4 -10 -10z"/>
<path d="M970 256 c0 -2 7 -7 16 -10 8 -3 12 -2 9 4 -6 10 -25 14 -25 6z"/>
<path d="M1074 248 c12 -7 21 -7 28 0 6 6 0 10 -18 10 -23 0 -24 -2 -10 -10z"/>
<path d="M1716 243 c-6 -14 -5 -15 5 -6 7 7 10 15 7 18 -3 3 -9 -2 -12 -12z"/>
<path d="M270 227 c0 -8 -10 -18 -22 -20 l-23 -4 23 -2 c22 -1 41 23 28 36 -3
4 -6 -1 -6 -10z"/>
<path d="M750 226 c0 -9 5 -16 10 -16 6 0 10 4 10 9 0 6 -4 13 -10 16 -5 3
-10 -1 -10 -9z"/>
<path d="M1130 236 c0 -2 7 -9 15 -16 13 -11 14 -10 9 4 -5 14 -24 23 -24 12z"/>
<path d="M1510 221 c0 -6 4 -13 10 -16 6 -3 7 1 4 9 -7 18 -14 21 -14 7z"/>
<path d="M4200 220 c0 -5 5 -10 10 -10 6 0 10 5 10 10 0 6 -4 10 -10 10 -5 0
-10 -4 -10 -10z"/>
<path d="M200 210 c0 -5 5 -10 11 -10 5 0 7 5 4 10 -3 6 -8 10 -11 10 -2 0 -4
-4 -4 -10z"/>
<path d="M342 200 c0 -14 2 -19 5 -12 2 6 2 18 0 25 -3 6 -5 1 -5 -13z"/>
<path d="M1291 184 c0 -11 3 -14 6 -6 3 7 2 16 -1 19 -3 4 -6 -2 -5 -13z"/>
<path d="M1540 190 c-13 -8 -12 -10 3 -10 9 0 17 5 17 10 0 12 -1 12 -20 0z"/>
<path d="M1877 189 c7 -7 15 -10 18 -7 3 3 -2 9 -12 12 -14 6 -15 5 -6 -5z"/>
<path d="M820 182 c0 -5 7 -9 15 -9 8 0 12 4 9 9 -3 4 -9 8 -15 8 -5 0 -9 -4
-9 -8z"/>
<path d="M919 153 c-13 -16 -12 -17 4 -4 16 13 21 21 13 21 -2 0 -10 -8 -17
-17z"/>
<path d="M852 146 c7 -8 15 -12 17 -11 5 6 -10 25 -20 25 -5 0 -4 -6 3 -14z"/>
<path d="M1940 156 c0 -2 9 -6 20 -9 11 -3 18 -1 14 4 -5 9 -34 13 -34 5z"/>
<path d="M348 123 c6 -2 9 -10 6 -15 -4 -7 -2 -8 4 -4 18 11 14 26 -5 25 -11
0 -13 -3 -5 -6z"/>
<path d="M1163 115 c-3 -9 -3 -18 -1 -21 3 -3 8 4 11 16 6 23 -1 27 -10 5z"/>
<path d="M1497 100 c-3 -11 -3 -20 -1 -20 2 0 8 9 14 20 6 11 7 20 2 20 -6 0
-12 -9 -15 -20z"/>
<path d="M265 91 c-3 -5 -1 -12 5 -16 5 -3 10 1 10 9 0 18 -6 21 -15 7z"/>
<path d="M560 85 c0 -8 5 -15 10 -15 6 0 10 7 10 15 0 8 -4 15 -10 15 -5 0
-10 -7 -10 -15z"/>
<path d="M1038 93 c7 -3 16 -2 19 1 4 3 -2 6 -13 5 -11 0 -14 -3 -6 -6z"/>
<path d="M1120 85 c0 -8 2 -15 4 -15 2 0 6 7 10 15 3 8 1 15 -4 15 -6 0 -10
-7 -10 -15z"/>
<path d="M3395 90 c-3 -5 -2 -10 4 -10 5 0 13 5 16 10 3 6 2 10 -4 10 -5 0
-13 -4 -16 -10z"/>
<path d="M1424 58 c-4 -6 -3 -8 4 -4 5 3 13 0 15 -6 3 -8 6 -6 6 5 1 19 -14
23 -25 5z"/>
<path d="M4320 61 c0 -5 9 -7 20 -4 11 3 20 7 20 9 0 2 -9 4 -20 4 -11 0 -20
-4 -20 -9z"/>
<path d="M2415 50 c-3 -5 -1 -10 4 -10 6 0 11 5 11 10 0 6 -2 10 -4 10 -3 0
-8 -4 -11 -10z"/>
</g>
</svg>
